<svg width="83.483643" height="26.582504" viewBox="0 0 83.4836 26.5825" fill="none" xmlns="http://www.w3.org/2000/svg" xmlns:xlink="http://www.w3.org/1999/xlink">
	<desc>
			Created with Pixso.
	</desc>
	<defs/>
	<path id="snap" d="M5.38 18.96C6.41 19.22 7.48 19.35 8.59 19.35C9.66 19.35 10.71 19.23 11.72 19C12.75 18.78 13.67 18.43 14.5 17.97C15.34 17.49 16.01 16.87 16.5 16.11C16.99 15.35 17.23 14.44 17.23 13.38Q17.23 11.84 16.52 10.85C16.05 10.17 15.43 9.63 14.66 9.22C13.9 8.8 13.09 8.48 12.21 8.26C11.35 8.02 10.52 7.84 9.74 7.71Q8.5 7.5 7.55 7.28C6.92 7.11 6.43 6.91 6.08 6.66C5.73 6.41 5.56 6.08 5.56 5.68Q5.56 5.35 5.7 5.1Q5.82 4.89 6.05 4.74C6.38 4.5 6.77 4.34 7.24 4.25C7.72 4.14 8.18 4.09 8.62 4.09C9.11 4.09 9.58 4.17 10.04 4.32C10.5 4.46 10.87 4.67 11.16 4.96C11.46 5.26 11.62 5.64 11.62 6.1L11.62 6.31L16.95 6.31L16.95 6.07Q16.95 4.86 16.48 3.88Q16.21 3.31 15.78 2.81C15 1.9 13.98 1.21 12.72 0.73C11.46 0.24 10.1 3.81e-6 8.64 3.81e-6Q6.35 3.81e-6 4.44 0.66C3.17 1.1 2.15 1.76 1.38 2.62Q1.02 3.03 0.77 3.5Q0.24 4.52 0.24 5.81Q0.24 7.17 0.86 8.14Q0.88 8.18 0.9 8.22C1.35 8.87 1.94 9.42 2.67 9.85C3.41 10.27 4.21 10.61 5.09 10.86C5.96 11.12 6.83 11.32 7.68 11.46Q9.93 11.84 10.95 12.23Q11.6 12.47 11.84 12.93Q11.98 13.2 11.98 13.54C11.98 13.93 11.82 14.25 11.49 14.5C11.18 14.75 10.77 14.93 10.27 15.05Q9.53 15.2 8.73 15.2Q7.19 15.2 6.28 14.73C5.68 14.42 5.38 13.92 5.38 13.24L5.38 13L-9.66e-6 13L-9.66e-6 13.31C-9.66e-6 14.32 0.23 15.2 0.69 15.96C1.17 16.7 1.81 17.33 2.62 17.83C3.44 18.33 4.36 18.71 5.38 18.96ZM33.21 11.04L33.21 18.93L38.62 18.93L38.62 7.29C38.62 5.83 38.37 4.56 37.88 3.48Q37.47 2.52 36.79 1.82Q36.31 1.31 35.68 0.92C34.7 0.3 33.45 3.81e-6 31.92 3.81e-6Q30.4 2.86e-6 29.07 0.49Q28.48 0.71 27.93 1.03Q27.16 1.47 26.53 2.06Q25.99 2.57 25.55 3.18L25.55 0.35L20.12 0.35L20.12 18.93L25.55 18.93L25.55 9.2Q25.55 7.85 26.04 6.82C26.36 6.13 26.83 5.6 27.44 5.21C28.06 4.83 28.78 4.63 29.62 4.63Q31.08 4.63 31.85 5.21C32.36 5.6 32.72 6.11 32.91 6.75Q33.21 7.7 33.21 8.85L33.21 11.04ZM44.87 18.67C45.93 19.1 47.14 19.32 48.49 19.32Q50.23 19.32 51.71 18.88C52.72 18.57 53.58 18.15 54.3 17.6C54.56 17.4 54.8 17.19 55.01 16.97C55.06 17.15 55.12 17.34 55.18 17.53C55.3 17.87 55.44 18.17 55.6 18.42Q55.86 18.81 55.98 18.93L61.32 18.93C61.21 18.83 61.06 18.64 60.88 18.37C60.71 18.1 60.56 17.76 60.45 17.36C60.34 16.99 60.27 16.6 60.24 16.17C60.21 15.72 60.2 15.26 60.2 14.78L60.2 6.75C60.2 5.22 59.78 3.96 58.92 2.97Q58.84 2.87 58.75 2.77Q57.53 1.43 55.58 0.75C54.19 0.25 52.68 3.81e-6 51.05 3.81e-6C49.3 3.81e-6 47.73 0.26 46.34 0.8C44.95 1.33 43.85 2.1 43.03 3.13C42.23 4.15 41.83 5.41 41.83 6.91L47.16 6.91C47.16 5.99 47.49 5.3 48.14 4.86C48.81 4.41 49.77 4.18 51.01 4.18C52.19 4.18 53.11 4.38 53.76 4.77Q54.38 5.14 54.62 5.68Q54.76 6.01 54.76 6.4L54.76 6.44C54.76 6.84 54.37 7.13 53.59 7.29Q52.43 7.54 49.37 7.84C47.97 7.98 46.67 8.27 45.47 8.71C44.28 9.14 43.32 9.77 42.6 10.6C41.87 11.43 41.51 12.5 41.51 13.82C41.51 14.99 41.81 15.98 42.4 16.79C43 17.61 43.82 18.24 44.87 18.67ZM70.83 18.18C72.05 18.96 73.4 19.35 74.87 19.35C76.41 19.35 77.83 18.98 79.14 18.25C80.45 17.5 81.5 16.4 82.29 14.94C83.08 13.48 83.48 11.69 83.48 9.55Q83.48 6.49 82.25 4.35C81.45 2.93 80.39 1.85 79.09 1.12C77.78 0.37 76.37 3.81e-6 74.87 3.81e-6C73.4 3.81e-6 72.05 0.37 70.83 1.12C70.2 1.5 69.63 1.96 69.13 2.49L69.13 0.35L63.69 0.35L63.69 26.58L69.13 26.58L69.13 16.74C69.63 17.29 70.2 17.77 70.83 18.18ZM69.13 10.14L69.13 10.36C69.13 11.22 69.34 11.98 69.76 12.63C70.18 13.27 70.72 13.77 71.39 14.12C72.05 14.47 72.75 14.64 73.47 14.64Q74.34 14.64 75.1 14.35Q75.9 14.04 76.57 13.42C77.45 12.59 77.9 11.3 77.9 9.55C77.9 7.8 77.46 6.53 76.58 5.74C75.71 4.93 74.67 4.53 73.47 4.53C72.75 4.53 72.05 4.7 71.39 5.05C70.72 5.39 70.18 5.88 69.76 6.51C69.34 7.14 69.13 7.89 69.13 8.76L69.13 10.14ZM52.33 14.8C51.59 15.1 50.8 15.26 49.95 15.26Q48.46 15.26 47.71 14.78C47.21 14.46 46.95 13.97 46.95 13.33Q46.95 12.78 47.21 12.41Q47.43 12.09 47.83 11.9C48.42 11.6 49.32 11.4 50.51 11.28Q52.01 11.13 53.52 10.86C53.99 10.78 54.43 10.68 54.85 10.57L54.85 10.72C54.85 11.8 54.61 12.67 54.15 13.33C53.68 14 53.07 14.49 52.33 14.8Z" fill="#151515" fill-opacity="1.000000" fill-rule="evenodd"/>
</svg>
