<svg width="343.000244" height="26.000000" viewBox="0 0 343 26" fill="none" xmlns="http://www.w3.org/2000/svg" xmlns:xlink="http://www.w3.org/1999/xlink">
	<desc>
			Created with Pixso.
	</desc>
	<defs/>
	<path id="databiz" d="M16.1631 20.1075C16.7646 20.1075 17.2944 19.9757 17.752 19.7122Q18.1763 19.468 18.5105 19.1339Q18.7173 18.9272 18.8899 18.6863L18.8899 19.8627L21.1841 19.8627L21.1841 5.745L18.8899 5.745L18.8899 11.6274Q18.6841 11.3358 18.4297 11.0959L18.4297 11.0959Q18.1257 10.8094 17.752 10.5968C17.2944 10.3364 16.7646 10.2062 16.1631 10.2062Q15.3311 10.2062 14.5859 10.4604Q14.4131 10.5194 14.2449 10.5921Q13.7424 10.8091 13.3071 11.1198L13.3071 11.1198Q12.9683 11.3616 12.6697 11.6603Q12.3745 11.9559 12.1348 12.2911Q11.821 12.73 11.6025 13.2368Q11.531 13.4027 11.4727 13.5732L11.4727 13.5733Q11.217 14.3214 11.217 15.1569Q11.217 15.9923 11.4727 16.7404L11.4727 16.7404Q11.531 16.9109 11.6025 17.0768Q11.821 17.5837 12.1348 18.0225Q12.3745 18.3578 12.6697 18.6533Q12.9683 18.952 13.3071 19.1939Q13.7424 19.5046 14.2449 19.7216Q14.4131 19.7943 14.5859 19.8533Q15.3311 20.1075 16.1631 20.1075ZM14.8794 17.5286C15.2776 17.7733 15.7148 17.8957 16.1912 17.8957C16.6802 17.8957 17.1125 17.7733 17.4888 17.5286C17.865 17.2839 18.1594 16.9529 18.3726 16.5356Q18.4338 16.4157 18.4834 16.2911Q18.6924 15.7654 18.6924 15.1569C18.6924 14.6486 18.5857 14.1859 18.3726 13.7686C18.1594 13.3513 17.8633 13.0203 17.4841 12.7756C17.1047 12.5309 16.6738 12.4086 16.1912 12.4086Q15.7476 12.4086 15.3533 12.5482Q15.1042 12.6364 14.8748 12.7803C14.4797 13.0282 14.1633 13.3592 13.925 13.7733C13.6868 14.1874 13.5676 14.6486 13.5676 15.1569Q13.5676 15.7127 13.7578 16.1935Q13.8284 16.3721 13.925 16.5403C14.1633 16.9545 14.4814 17.2839 14.8794 17.5286ZM27.9448 20.1075C28.5154 20.1075 29.0122 19.9772 29.4353 19.7169C29.8584 19.4565 30.2017 19.1161 30.4648 18.6957L30.5588 19.8627L32.8628 19.8627L32.8628 10.4509L30.5684 10.4509L30.6719 11.6556C30.3269 11.2289 29.9084 10.8776 29.4165 10.6015C28.9243 10.3254 28.365 10.1874 27.738 10.1874C27.0674 10.1874 26.4404 10.3129 25.8574 10.5638C25.2744 10.8148 24.7605 11.1631 24.3154 11.6086Q24.0422 11.882 23.8193 12.1917Q23.4976 12.6389 23.281 13.1615Q23.2166 13.3168 23.1636 13.4759Q22.9143 14.223 22.9143 15.0533Q22.9143 15.9197 23.1794 16.6955Q23.2341 16.8552 23.2998 17.011C23.5569 17.6196 23.9172 18.1561 24.3811 18.6204Q24.6812 18.9207 25.0215 19.165Q25.4702 19.4873 25.989 19.7122C26.5972 19.9757 27.249 20.1075 27.9448 20.1075ZM26.7085 17.538C27.1128 17.7765 27.5469 17.8957 28.0107 17.8957C28.5122 17.8957 28.948 17.767 29.3176 17.5098C29.6875 17.2525 29.968 16.909 30.1594 16.4792C30.3191 16.1201 30.3989 15.7291 30.3989 15.3065C30.3989 15.2233 30.3958 15.1389 30.3896 15.0533C30.3457 14.5639 30.2017 14.1199 29.957 13.7215C29.7126 13.3231 29.3992 13.0046 29.0168 12.7662C28.6345 12.5278 28.2051 12.4086 27.7288 12.4086C27.2334 12.4086 26.7898 12.5372 26.3982 12.7944C26.0063 13.0517 25.7039 13.3953 25.4907 13.8251C25.314 14.1815 25.2256 14.5714 25.2256 14.9946Q25.2256 15.1254 25.2368 15.2604C25.2871 15.7435 25.4436 16.1843 25.707 16.5827C25.9702 16.9811 26.3042 17.2996 26.7085 17.538ZM38.3352 19.8627L38.3352 12.7474L40.1594 12.7474L40.1594 10.4509L38.3352 10.4509L38.3352 7.49561L36.0408 7.49561L36.0408 10.4509L34.6492 10.4509L34.6492 12.7474L36.0408 12.7474L36.0408 19.8627L38.3352 19.8627ZM46.4312 20.1075C47.0017 20.1075 47.4985 19.9772 47.9216 19.7169C48.3447 19.4565 48.688 19.1161 48.9512 18.6957L49.0452 19.8627L51.3489 19.8627L51.3489 10.4509L49.0547 10.4509L49.158 11.6556C48.8132 11.2289 48.3948 10.8776 47.9028 10.6015C47.4106 10.3254 46.8511 10.1874 46.2244 10.1874C45.5535 10.1874 44.9268 10.3129 44.3438 10.5638C43.7607 10.8148 43.2466 11.1631 42.8015 11.6086Q42.5283 11.882 42.3057 12.1918Q41.9839 12.6389 41.7673 13.1615C41.5227 13.7513 41.4006 14.3819 41.4006 15.0533C41.4006 15.7498 41.5291 16.4023 41.7861 17.011C42.0432 17.6196 42.4036 18.1561 42.8674 18.6204C43.3313 19.0847 43.8672 19.4486 44.4753 19.7122C45.0835 19.9757 45.7354 20.1075 46.4312 20.1075ZM45.1946 17.538C45.5991 17.7765 46.0332 17.8957 46.4971 17.8957C46.9985 17.8957 47.4341 17.767 47.804 17.5098C48.1738 17.2525 48.4543 16.909 48.6455 16.4792C48.8054 16.1201 48.8853 15.7291 48.8853 15.3065C48.8853 15.2233 48.8821 15.1389 48.876 15.0533C48.832 14.5639 48.688 14.1199 48.4434 13.7215C48.199 13.3231 47.8855 13.0046 47.5032 12.7662C47.1208 12.5278 46.6914 12.4086 46.2148 12.4086C45.7197 12.4086 45.2761 12.5372 44.8843 12.7944C44.4927 13.0517 44.1902 13.3953 43.9771 13.8251C43.8003 14.1815 43.7119 14.5714 43.7119 14.9946Q43.7119 15.1254 43.7231 15.2604C43.7732 15.7435 43.9299 16.1843 44.1934 16.5827Q44.4243 16.9324 44.7278 17.1999Q44.9431 17.3896 45.1946 17.538ZM58.6082 20.1075C59.2976 20.1075 59.9417 19.9788 60.5403 19.7216C61.1389 19.4643 61.6655 19.1082 62.1201 18.6533C62.5745 18.1984 62.9302 17.6698 63.1873 17.0674C63.4443 16.4651 63.5728 15.822 63.5728 15.138C63.5728 14.2282 63.3503 13.3984 62.9053 12.6486C62.4602 11.8987 61.8616 11.3011 61.1091 10.8557C60.3569 10.4102 59.5232 10.1874 58.6082 10.1874Q57.8218 10.1874 57.1956 10.5039Q57.1177 10.5432 57.0425 10.5874C56.5879 10.8541 56.2073 11.2007 55.8999 11.6274L55.8999 5.745L53.6057 5.745L53.6057 19.8627L55.8999 19.8627L55.8999 18.6674C56.2073 19.0941 56.5879 19.4408 57.0425 19.7075Q57.1177 19.7516 57.1956 19.791Q57.8218 20.1075 58.6082 20.1075ZM57.301 17.5192C57.6772 17.7639 58.1035 17.8863 58.5798 17.8863Q59.0476 17.8863 59.46 17.735Q59.6941 17.6492 59.9104 17.5145Q60.1621 17.3578 60.3711 17.1569Q60.658 16.881 60.8647 16.5215C61.103 16.1074 61.2222 15.6462 61.2222 15.138C61.2222 14.636 61.103 14.1765 60.8647 13.7592Q60.6543 13.3906 60.3591 13.1118Q60.1531 12.9172 59.9058 12.7662Q59.6597 12.6162 59.3933 12.5275Q59.0081 12.3992 58.5798 12.3992C58.1035 12.3992 57.6772 12.5231 57.301 12.7709C56.9248 13.0188 56.6304 13.3513 56.4172 13.7686C56.2041 14.1859 56.0974 14.6423 56.0974 15.138Q56.0974 15.7944 56.3345 16.3497Q56.3728 16.4393 56.4172 16.5262C56.6304 16.9435 56.9248 17.2745 57.301 17.5192ZM66.4219 9.04852C66.7542 9.04852 67.0347 8.93719 67.2634 8.71442C67.4922 8.4917 67.6067 8.21088 67.6067 7.87207C67.6067 7.53949 67.4922 7.26031 67.2634 7.03442C67.0347 6.80853 66.7542 6.69562 66.4219 6.69562C66.0896 6.69562 65.8076 6.80853 65.5757 7.03442C65.3438 7.26031 65.2278 7.53949 65.2278 7.87207C65.2278 8.21088 65.3438 8.4917 65.5757 8.71442C65.8076 8.93719 66.0896 9.04852 66.4219 9.04852ZM80.0662 12.6392C80.3984 12.6392 80.679 12.5278 80.9077 12.3051C81.1367 12.0823 81.251 11.8015 81.251 11.4627C81.251 11.1301 81.1367 10.8509 80.9077 10.6251C80.679 10.3992 80.3984 10.2862 80.0662 10.2862Q79.7944 10.2862 79.5674 10.387Q79.3782 10.471 79.22 10.6251C78.988 10.8509 78.8721 11.1301 78.8721 11.4627C78.8721 11.8015 78.988 12.0823 79.22 12.3051Q79.3735 12.4526 79.5566 12.535Q79.7881 12.6392 80.0662 12.6392ZM4.73804 19.6218Q5.8645 19.6218 6.79126 19.1915Q7.49121 18.8665 8.07715 18.2961C8.98486 17.4124 9.43872 16.2983 9.43872 14.954Q9.43872 13.8524 9.01685 12.9474Q8.68091 12.2266 8.07715 11.6306Q7.47339 11.0347 6.74902 10.7029Q5.83887 10.2862 4.73804 10.2862Q3.65942 10.2862 2.7583 10.6863Q2.00781 11.0196 1.38037 11.6306Q0.751221 12.2432 0.408936 12.9877Q0 13.8768 0 14.954Q0 16.133 0.471924 17.0758Q0.807129 17.7455 1.38037 18.2961Q1.98999 18.8815 2.71582 19.2084Q3.63379 19.6218 4.73804 19.6218ZM67.5596 19.8627L67.5596 10.4509L65.2654 10.4509L65.2654 19.8627L67.5596 19.8627ZM77.8999 19.8627L77.8999 17.5663L73.1794 17.5663L77.8999 12.7474L77.8999 10.4509L69.8696 10.4509L69.8696 12.7474L74.5994 12.7474L69.8696 17.5663L69.8696 19.8627L77.8999 19.8627Z" clip-rule="evenodd" fill="#ADADAD" fill-opacity="1.000000" fill-rule="evenodd"/>
	<path id="Union" d="M146.927 2.60559L146.927 0L143.894 0L143.894 2.60559L146.927 2.60559ZM136.67 12.9364C137.712 12.9364 138.64 12.5833 139.368 11.9729L139.658 12.6348L141.938 12.6348L141.938 0.502319L138.892 0.502319L138.892 4.04779C138.251 3.651 137.496 3.42896 136.67 3.42896C133.926 3.42896 131.971 5.40784 131.971 8.17798C131.971 9.34949 132.32 10.3811 132.931 11.1817L132.931 22.7811L136.012 22.7811L136.012 18.0212C136.012 16.8773 136.593 16.218 137.525 16.218C138.329 16.218 138.692 16.7421 138.692 17.7701L138.692 22.7811L141.772 22.7811L141.772 17.4135C141.772 15.103 140.453 13.6038 138.399 13.6038C137.508 13.6038 136.671 13.9254 136.012 14.454L136.012 12.897C136.226 12.923 136.445 12.9364 136.67 12.9364ZM153.382 12.927C156.289 12.927 158.397 10.9316 158.397 8.17798C158.397 5.41486 156.289 3.42914 153.382 3.42914C150.466 3.42914 148.368 5.41486 148.368 8.17798C148.368 9.10266 148.604 9.94183 149.029 10.6486L148.633 10.6486L148.633 22.7811L151.713 22.7811L151.713 12.6891C152.229 12.8442 152.788 12.927 153.382 12.927ZM114.69 12.927C115.729 12.927 116.656 12.5863 117.388 11.995L117.652 12.6254L120.034 12.6254L120.034 3.71173L117.738 3.71155L117.422 4.40088C116.684 3.79358 115.743 3.44299 114.69 3.44299C111.955 3.44299 110 5.40784 110 8.1684C110 10.9386 111.955 12.927 114.69 12.927ZM160.45 5.9939C160.785 5.9939 161.068 5.88153 161.299 5.65692Q161.438 5.5213 161.521 5.35724Q161.645 5.11365 161.645 4.80743Q161.645 4.52747 161.537 4.29742Q161.452 4.1142 161.299 3.96271C161.068 3.73492 160.785 3.62103 160.45 3.62103C160.115 3.62103 159.83 3.73492 159.596 3.96271C159.363 4.19049 159.246 4.47205 159.246 4.80743C159.246 5.14911 159.363 5.43231 159.596 5.65692C159.83 5.88153 160.115 5.9939 160.45 5.9939ZM146.951 12.6346L146.951 3.72101L143.871 3.72101L143.871 10.1463L143.638 10.1463L143.638 12.752L146.671 12.752L146.671 12.6346L146.951 12.6346ZM126.27 12.927C128.912 12.927 130.672 11.3024 130.672 8.80817L130.672 3.72113L127.591 3.72113L127.591 8.67468C127.591 9.60614 127.093 10.1688 126.27 10.1688C125.447 10.1688 124.939 9.61554 124.939 8.67468L124.939 3.72113L121.859 3.72113L121.859 8.80817C121.859 11.3024 123.628 12.927 126.27 12.927ZM137.082 10.2179C135.928 10.2179 135.08 9.34204 135.08 8.17816C135.08 7.0141 135.928 6.13824 137.082 6.13824C138.236 6.13824 139.084 7.0141 139.084 8.17816C139.084 9.34204 138.236 10.2179 137.082 10.2179ZM115.102 10.2085C113.948 10.2085 113.099 9.33954 113.099 8.17548C113.099 7.01855 113.941 6.1496 115.102 6.1496C116.255 6.1496 117.104 7.01855 117.104 8.17548C117.104 9.33954 116.255 10.2085 115.102 10.2085ZM153.382 10.169C152.259 10.1688 151.454 9.35651 151.454 8.1781C151.454 6.99969 152.259 6.18738 153.382 6.18738C154.506 6.18738 155.311 7.00677 155.311 8.17828C155.311 9.35669 154.506 10.169 153.382 10.169ZM124.648 26L124.648 22.4908C125.28 22.8708 126.02 23.0828 126.829 23.0828C129.563 23.0828 131.519 21.1014 131.519 18.3243C131.519 15.5472 129.563 13.5753 126.829 13.5753C125.766 13.5753 124.82 13.9418 124.084 14.5756L123.698 13.8675L121.603 13.8675L121.603 26L124.648 26ZM157.988 23.0735C160.232 23.0735 162.041 21.8024 162.67 19.7681L159.605 19.7681C159.309 20.2899 158.708 20.6041 157.988 20.6041C157.015 20.6041 156.364 20.0753 156.162 19.0529L162.803 19.0529C162.843 18.7772 162.867 18.5087 162.867 18.2401L162.867 18.2398C162.867 15.6251 160.871 13.5754 157.988 13.5754C155.181 13.5754 153.13 15.5848 153.13 18.3175C153.13 21.0406 155.197 23.0735 157.988 23.0735ZM146.695 22.781L146.695 13.8673L143.615 13.8673L143.615 22.781L146.695 22.781ZM159.832 17.3527L156.216 17.3527C156.466 16.4673 157.09 15.9812 157.988 15.9812C158.917 15.9812 159.562 16.4619 159.832 17.3527ZM126.417 20.364C125.263 20.364 124.415 19.4951 124.415 18.3241C124.415 17.1531 125.263 16.2842 126.417 16.2842C127.571 16.2842 128.419 17.1531 128.419 18.3241C128.419 19.4951 127.563 20.364 126.417 20.364Z" clip-rule="evenodd" fill="#ADADAD" fill-opacity="1.000000" fill-rule="evenodd"/>
	<mask id="mask_0_376" fill="white">
		<path id="Combined Shape" d="M198.647 9.33563C198.647 7.35254 200.255 5.745 202.238 5.745C204.221 5.745 205.828 7.35254 205.828 9.33563C205.828 11.3187 204.221 12.9262 202.238 12.9262C200.255 12.9262 198.647 11.3187 198.647 9.33563ZM255.26 9.20007C255.031 9.42285 254.751 9.53424 254.419 9.53424C254.086 9.53424 253.804 9.42285 253.572 9.20007Q253.428 9.06134 253.343 8.89252Q253.224 8.65491 253.224 8.35773Q253.224 8.08624 253.327 7.86212Q253.414 7.6745 253.572 7.52008C253.804 7.29419 254.086 7.18127 254.419 7.18127C254.751 7.18127 255.031 7.29419 255.26 7.52008Q255.412 7.67029 255.497 7.85199Q255.604 8.08008 255.604 8.35773Q255.604 8.66138 255.481 8.90289Q255.398 9.06561 255.26 9.20007ZM250.08 19.0317C250.328 19.0317 250.636 19.0068 251.004 18.9569C251.372 18.907 251.674 18.8434 251.912 18.7658L251.912 16.5891C251.696 16.6555 251.496 16.7026 251.312 16.7303Q251.037 16.7719 250.729 16.7719C250.307 16.7719 250.012 16.6915 249.845 16.5309C249.677 16.3703 249.593 16.0961 249.593 15.7084L249.593 12.3685L251.993 12.3685L251.993 10.1252L249.593 10.1252L249.593 7.28381L246.967 7.86542L246.967 10.1252L245.231 10.1252L245.231 12.3685L246.967 12.3685L246.967 16.2401C246.967 17.1595 247.229 17.8547 247.753 18.3255Q248.539 19.0317 250.08 19.0317ZM214.097 12.9002L214.097 18.9154L211.471 18.9154L211.471 10.1252L214.097 10.1252L214.097 10.6902Q214.386 10.4577 214.711 10.2991L214.712 10.299L214.712 10.2989L214.712 10.2988L214.713 10.2983Q214.898 10.2081 215.095 10.1418Q215.133 10.129 215.172 10.117L215.172 10.1169L215.172 10.1168Q215.681 9.95905 216.238 9.95905Q216.94 9.95905 217.534 10.2119L217.535 10.2121L217.535 10.2122Q217.613 10.2455 217.689 10.2831Q218.096 10.4838 218.419 10.7769L218.419 10.7773L218.419 10.7773L218.419 10.7774L218.42 10.7777L218.42 10.7778L218.42 10.7783Q218.618 10.9578 218.784 11.1721Q219.04 10.8846 219.344 10.6621Q219.655 10.4344 220.016 10.2748Q220.06 10.2555 220.104 10.2374L220.104 10.2373Q220.781 9.95905 221.573 9.95905Q222.456 9.95905 223.145 10.3237L223.145 10.3237L223.146 10.3237L223.146 10.3239Q223.596 10.5621 223.965 10.9561Q224.222 11.2308 224.408 11.5473L224.408 11.5477L224.408 11.5479Q224.897 12.3794 224.897 13.4984L224.897 18.9154L222.27 18.9154L222.27 13.864Q222.27 13.2288 221.969 12.8103L221.969 12.8103Q221.931 12.758 221.889 12.7091Q221.744 12.541 221.562 12.4371Q221.267 12.2688 220.876 12.2688C220.584 12.2688 220.319 12.3269 220.081 12.4432C219.843 12.5596 219.638 12.723 219.465 12.9334C219.476 13.022 219.484 13.1135 219.489 13.2076C219.495 13.3018 219.497 13.3987 219.497 13.4984L219.497 18.9154L216.87 18.9154L216.87 13.864Q216.87 13.2289 216.569 12.8104L216.569 12.8103L216.569 12.8103Q216.532 12.758 216.489 12.7091Q216.344 12.541 216.162 12.4371L216.162 12.4371Q215.867 12.2688 215.476 12.2688Q215.038 12.2688 214.689 12.4266Q214.575 12.4785 214.472 12.5472L214.472 12.5473L214.472 12.5473L214.472 12.5473L214.471 12.5476Q214.261 12.6884 214.097 12.9002ZM230.735 19.0815Q231.805 19.0815 232.656 18.7658Q233.508 18.4501 234.318 17.7522L232.583 16.1736Q232.545 16.2131 232.504 16.2502L232.504 16.2505L232.504 16.2508Q232.22 16.5113 231.837 16.6638Q231.399 16.8383 230.865 16.8383Q230.296 16.8383 229.84 16.6113Q229.698 16.5405 229.567 16.4478C229.2 16.1875 228.929 15.8524 228.756 15.4425L234.87 15.4425L234.87 14.7779Q234.87 13.7476 234.545 12.8586Q234.221 11.9697 233.645 11.3383Q233.442 11.1154 233.212 10.9257L233.212 10.9257L233.212 10.9255L233.211 10.9255L233.211 10.9249Q232.789 10.5775 232.275 10.3412Q232.185 10.2996 232.092 10.2626L232.092 10.2625Q231.373 9.97571 230.54 9.97571Q229.752 9.97571 229.05 10.2205L229.05 10.2205Q228.914 10.268 228.781 10.3246Q228.184 10.5791 227.703 10.9749L227.698 10.9788Q227.522 11.1241 227.362 11.2884Q227.295 11.3566 227.232 11.4275L227.23 11.4295L227.229 11.4308L227.229 11.431Q226.722 11.9985 226.413 12.7423Q226.332 12.937 226.27 13.1375L226.27 13.1376L226.27 13.1379L226.27 13.1381L226.27 13.139Q226.065 13.8021 226.065 14.5286Q226.065 15.1977 226.247 15.8129L226.247 15.8132L226.247 15.8134L226.247 15.8135Q226.323 16.0688 226.429 16.3149Q226.72 16.9824 227.174 17.508Q227.291 17.6431 227.419 17.7689C227.835 18.1787 228.329 18.4999 228.902 18.7326C229.475 18.9652 230.086 19.0815 230.735 19.0815ZM240.383 19.0815Q241.453 19.0815 242.304 18.7658Q243.156 18.4501 243.967 17.7522L242.231 16.1736Q242.195 16.2108 242.157 16.246L242.156 16.2473L242.155 16.2478L242.153 16.2502L242.152 16.2505L242.152 16.2508L242.152 16.2509Q241.868 16.5114 241.486 16.6638C241.194 16.7802 240.869 16.8383 240.513 16.8383C240.015 16.8383 239.583 16.7081 239.215 16.4478C238.848 16.1875 238.578 15.8524 238.405 15.4425L244.518 15.4425L244.518 14.7779C244.518 14.0911 244.41 13.4513 244.194 12.8586C243.977 12.266 243.677 11.7592 243.294 11.3383Q243.091 11.1154 242.86 10.9257L242.86 10.9257L242.86 10.9255Q242.438 10.5778 241.923 10.3412C241.394 10.0975 240.815 9.97571 240.188 9.97571Q239.401 9.97571 238.698 10.2205L238.698 10.2205Q238.562 10.268 238.429 10.3246Q237.832 10.5791 237.351 10.9749Q237.173 11.1219 237.01 11.2884C236.61 11.6982 236.294 12.1829 236.062 12.7423Q235.98 12.9371 235.918 13.1376L235.918 13.1379Q235.713 13.8014 235.713 14.5286Q235.713 15.1975 235.895 15.8126L235.895 15.8131L235.895 15.8132Q235.971 16.0687 236.078 16.3149C236.321 16.8743 236.651 17.3589 237.067 17.7689C237.483 18.1787 237.978 18.4999 238.551 18.7326C239.124 18.9652 239.734 19.0815 240.383 19.0815ZM228.708 13.5649L232.291 13.5649C232.151 13.1439 231.921 12.806 231.602 12.5513C231.283 12.2964 230.913 12.1691 230.491 12.1691C230.059 12.1691 229.686 12.291 229.373 12.5346C229.059 12.7783 228.837 13.1218 228.708 13.5649ZM238.356 13.5649L241.94 13.5649C241.799 13.1439 241.569 12.806 241.25 12.5513C240.932 12.2964 240.561 12.1691 240.14 12.1691C239.707 12.1691 239.334 12.291 239.021 12.5346Q238.964 12.5791 238.911 12.6279L238.91 12.6282L238.91 12.6288Q238.527 12.9817 238.356 13.5649ZM191.466 16.5168C191.466 14.5338 193.073 12.9262 195.056 12.9262C197.04 12.9262 198.647 14.5338 198.647 16.5168C198.647 18.4999 197.04 20.1075 195.056 20.1075C193.073 20.1075 191.466 18.4999 191.466 16.5168Z" clip-rule="evenodd" fill="" fill-opacity="1.000000" fill-rule="evenodd"/>
	</mask>
	<path id="Combined Shape" d="M198.647 9.33563C198.647 7.35254 200.255 5.745 202.238 5.745C204.221 5.745 205.828 7.35254 205.828 9.33563C205.828 11.3187 204.221 12.9262 202.238 12.9262C200.255 12.9262 198.647 11.3187 198.647 9.33563ZM255.26 9.20007C255.031 9.42285 254.751 9.53424 254.419 9.53424C254.086 9.53424 253.804 9.42285 253.572 9.20007Q253.428 9.06134 253.343 8.89252Q253.224 8.65491 253.224 8.35773Q253.224 8.08624 253.327 7.86212Q253.414 7.6745 253.572 7.52008C253.804 7.29419 254.086 7.18127 254.419 7.18127C254.751 7.18127 255.031 7.29419 255.26 7.52008Q255.412 7.67029 255.497 7.85199Q255.604 8.08008 255.604 8.35773Q255.604 8.66138 255.481 8.90289Q255.398 9.06561 255.26 9.20007ZM250.08 19.0317C250.328 19.0317 250.636 19.0068 251.004 18.9569C251.372 18.907 251.674 18.8434 251.912 18.7658L251.912 16.5891C251.696 16.6555 251.496 16.7026 251.312 16.7303Q251.037 16.7719 250.729 16.7719C250.307 16.7719 250.012 16.6915 249.845 16.5309C249.677 16.3703 249.593 16.0961 249.593 15.7084L249.593 12.3685L251.993 12.3685L251.993 10.1252L249.593 10.1252L249.593 7.28381L246.967 7.86542L246.967 10.1252L245.231 10.1252L245.231 12.3685L246.967 12.3685L246.967 16.2401C246.967 17.1595 247.229 17.8547 247.753 18.3255Q248.539 19.0317 250.08 19.0317ZM214.097 12.9002L214.097 18.9154L211.471 18.9154L211.471 10.1252L214.097 10.1252L214.097 10.6902Q214.386 10.4577 214.711 10.2991L214.712 10.299L214.712 10.2989L214.712 10.2988L214.713 10.2983Q214.898 10.2081 215.095 10.1418Q215.133 10.129 215.172 10.117L215.172 10.1169L215.172 10.1168Q215.681 9.95905 216.238 9.95905Q216.94 9.95905 217.534 10.2119L217.535 10.2121L217.535 10.2122Q217.613 10.2455 217.689 10.2831Q218.096 10.4838 218.419 10.7769L218.419 10.7773L218.419 10.7773L218.419 10.7774L218.42 10.7777L218.42 10.7778L218.42 10.7783Q218.618 10.9578 218.784 11.1721Q219.04 10.8846 219.344 10.6621Q219.655 10.4344 220.016 10.2748Q220.06 10.2555 220.104 10.2374L220.104 10.2373Q220.781 9.95905 221.573 9.95905Q222.456 9.95905 223.145 10.3237L223.145 10.3237L223.146 10.3237L223.146 10.3239Q223.596 10.5621 223.965 10.9561Q224.222 11.2308 224.408 11.5473L224.408 11.5477L224.408 11.5479Q224.897 12.3794 224.897 13.4984L224.897 18.9154L222.27 18.9154L222.27 13.864Q222.27 13.2288 221.969 12.8103L221.969 12.8103Q221.931 12.758 221.889 12.7091Q221.744 12.541 221.562 12.4371Q221.267 12.2688 220.876 12.2688C220.584 12.2688 220.319 12.3269 220.081 12.4432C219.843 12.5596 219.638 12.723 219.465 12.9334C219.476 13.022 219.484 13.1135 219.489 13.2076C219.495 13.3018 219.497 13.3987 219.497 13.4984L219.497 18.9154L216.87 18.9154L216.87 13.864Q216.87 13.2289 216.569 12.8104L216.569 12.8103L216.569 12.8103Q216.532 12.758 216.489 12.7091Q216.344 12.541 216.162 12.4371L216.162 12.4371Q215.867 12.2688 215.476 12.2688Q215.038 12.2688 214.689 12.4266Q214.575 12.4785 214.472 12.5472L214.472 12.5473L214.472 12.5473L214.472 12.5473L214.471 12.5476Q214.261 12.6884 214.097 12.9002ZM230.735 19.0815Q231.805 19.0815 232.656 18.7658Q233.508 18.4501 234.318 17.7522L232.583 16.1736Q232.545 16.2131 232.504 16.2502L232.504 16.2505L232.504 16.2508Q232.22 16.5113 231.837 16.6638Q231.399 16.8383 230.865 16.8383Q230.296 16.8383 229.84 16.6113Q229.698 16.5405 229.567 16.4478C229.2 16.1875 228.929 15.8524 228.756 15.4425L234.87 15.4425L234.87 14.7779Q234.87 13.7476 234.545 12.8586Q234.221 11.9697 233.645 11.3383Q233.442 11.1154 233.212 10.9257L233.212 10.9257L233.212 10.9255L233.211 10.9255L233.211 10.9249Q232.789 10.5775 232.275 10.3412Q232.185 10.2996 232.092 10.2626L232.092 10.2625Q231.373 9.97571 230.54 9.97571Q229.752 9.97571 229.05 10.2205L229.05 10.2205Q228.914 10.268 228.781 10.3246Q228.184 10.5791 227.703 10.9749L227.698 10.9788Q227.522 11.1241 227.362 11.2884Q227.295 11.3566 227.232 11.4275L227.23 11.4295L227.229 11.4308L227.229 11.431Q226.722 11.9985 226.413 12.7423Q226.332 12.937 226.27 13.1375L226.27 13.1376L226.27 13.1379L226.27 13.1381L226.27 13.139Q226.065 13.8021 226.065 14.5286Q226.065 15.1977 226.247 15.8129L226.247 15.8132L226.247 15.8134L226.247 15.8135Q226.323 16.0688 226.429 16.3149Q226.72 16.9824 227.174 17.508Q227.291 17.6431 227.419 17.7689C227.835 18.1787 228.329 18.4999 228.902 18.7326C229.475 18.9652 230.086 19.0815 230.735 19.0815ZM240.383 19.0815Q241.453 19.0815 242.304 18.7658Q243.156 18.4501 243.967 17.7522L242.231 16.1736Q242.195 16.2108 242.157 16.246L242.156 16.2473L242.155 16.2478L242.153 16.2502L242.152 16.2505L242.152 16.2508L242.152 16.2509Q241.868 16.5114 241.486 16.6638C241.194 16.7802 240.869 16.8383 240.513 16.8383C240.015 16.8383 239.583 16.7081 239.215 16.4478C238.848 16.1875 238.578 15.8524 238.405 15.4425L244.518 15.4425L244.518 14.7779C244.518 14.0911 244.41 13.4513 244.194 12.8586C243.977 12.266 243.677 11.7592 243.294 11.3383Q243.091 11.1154 242.86 10.9257L242.86 10.9257L242.86 10.9255Q242.438 10.5778 241.923 10.3412C241.394 10.0975 240.815 9.97571 240.188 9.97571Q239.401 9.97571 238.698 10.2205L238.698 10.2205Q238.562 10.268 238.429 10.3246Q237.832 10.5791 237.351 10.9749Q237.173 11.1219 237.01 11.2884C236.61 11.6982 236.294 12.1829 236.062 12.7423Q235.98 12.9371 235.918 13.1376L235.918 13.1379Q235.713 13.8014 235.713 14.5286Q235.713 15.1975 235.895 15.8126L235.895 15.8131L235.895 15.8132Q235.971 16.0687 236.078 16.3149C236.321 16.8743 236.651 17.3589 237.067 17.7689C237.483 18.1787 237.978 18.4999 238.551 18.7326C239.124 18.9652 239.734 19.0815 240.383 19.0815ZM228.708 13.5649L232.291 13.5649C232.151 13.1439 231.921 12.806 231.602 12.5513C231.283 12.2964 230.913 12.1691 230.491 12.1691C230.059 12.1691 229.686 12.291 229.373 12.5346C229.059 12.7783 228.837 13.1218 228.708 13.5649ZM238.356 13.5649L241.94 13.5649C241.799 13.1439 241.569 12.806 241.25 12.5513C240.932 12.2964 240.561 12.1691 240.14 12.1691C239.707 12.1691 239.334 12.291 239.021 12.5346Q238.964 12.5791 238.911 12.6279L238.91 12.6282L238.91 12.6288Q238.527 12.9817 238.356 13.5649ZM191.466 16.5168C191.466 14.5338 193.073 12.9262 195.056 12.9262C197.04 12.9262 198.647 14.5338 198.647 16.5168C198.647 18.4999 197.04 20.1075 195.056 20.1075C193.073 20.1075 191.466 18.4999 191.466 16.5168Z" clip-rule="evenodd" fill="#ADADAD" fill-opacity="1.000000" fill-rule="evenodd" mask="url(#mask_0_376)"/>
	<path id="Combined Shape" d="" fill="#979797" fill-opacity="0.000000" fill-rule="nonzero"/>
	<path id="Combined Shape" d="M284.104 12.1876C284.104 7.83618 287.631 4.30872 291.983 4.30872C295.908 4.30872 299.163 7.17902 299.762 10.9352C298.586 9.5874 296.855 8.73718 294.926 8.7406C291.392 8.74689 288.531 11.6161 288.536 15.1503C288.538 17.0724 289.387 18.7957 290.73 19.9674C286.974 19.3676 284.104 16.1127 284.104 12.1876ZM292.625 20.0406C292.413 20.0577 292.199 20.0664 291.983 20.0664C291.556 20.0664 291.138 20.0325 290.73 19.9674C291.857 20.9501 293.33 21.5449 294.942 21.5437C296.642 21.5424 298.271 20.8654 299.471 19.6619C300.671 18.4583 301.343 16.827 301.339 15.1275C301.335 13.5224 300.741 12.0566 299.762 10.9352C299.828 11.343 299.861 11.7614 299.861 12.1876C299.861 12.404 299.853 12.6185 299.836 12.8305C298.968 10.9974 297.103 9.72931 294.942 9.72546C292.749 9.72351 290.771 11.0441 289.933 13.0704C289.094 15.0967 289.56 17.4288 291.112 18.9774C291.56 19.4241 292.073 19.7803 292.625 20.0406ZM292.625 20.0406C296.464 19.7308 299.526 16.6693 299.836 12.8305C300.165 13.5259 300.35 14.3027 300.354 15.1226C300.362 17.3156 299.047 19.297 297.022 20.1412C295.583 20.7419 293.986 20.6826 292.625 20.0406ZM327.176 16.6194L327.176 13.5467L329.386 16.6194L331.478 16.6194L329.019 13.4285L331.324 10.2375L329.338 10.2375L327.176 13.3103L327.176 8.11029L325.545 8.11029L325.533 16.6194L327.176 16.6194ZM320.427 16.7967Q321.255 16.7967 321.795 16.5101C322.076 16.3615 322.341 16.1408 322.592 15.848L322.602 15.8355L322.602 16.6194L324.008 16.6194L324.008 12.7194C324.008 12.4279 323.997 12.1639 323.973 11.9276C323.949 11.6912 323.874 11.4548 323.748 11.2185Q323.564 10.8699 323.285 10.6341L323.285 10.6338L323.285 10.6337L323.284 10.6334Q323.053 10.438 322.756 10.3203Q322.1 10.0603 321.255 10.0603Q320.102 10.0603 319.435 10.5566Q319.093 10.8108 318.862 11.1425L318.862 11.1426L318.862 11.1426L318.862 11.1427L318.862 11.1428Q318.643 11.4587 318.525 11.8448L319.978 12.3058C320.081 12.0142 320.26 11.8113 320.516 11.6971C320.772 11.5829 321.018 11.5258 321.255 11.5258Q321.893 11.5258 322.165 11.7917Q322.355 11.9778 322.412 12.3116L322.423 12.3949L322.167 12.433C322.077 12.4464 321.99 12.4594 321.904 12.4722L321.651 12.5096C321.237 12.5707 320.867 12.6347 320.54 12.7017C320.213 12.7686 319.931 12.8455 319.695 12.9321C319.352 13.0582 319.079 13.2148 318.876 13.4019C318.673 13.5891 318.527 13.8047 318.436 14.049Q318.3 14.4153 318.3 14.8585Q318.3 15.2363 318.424 15.5679L318.424 15.5683Q318.474 15.7032 318.545 15.8306C318.709 16.124 318.949 16.3585 319.266 16.5338Q319.742 16.7967 320.427 16.7967ZM337.688 11.8625C337.913 12.4338 337.991 13.1055 337.924 13.8776L333.444 13.8776L333.452 13.9393C333.507 14.2936 333.624 14.5833 333.803 14.8083C334.061 15.1333 334.44 15.2958 334.94 15.2958Q335.413 15.2958 335.75 15.089C335.974 14.9511 336.146 14.7521 336.264 14.4921L337.871 14.9531C337.631 15.5361 337.252 15.9891 336.734 16.3121C336.216 16.6352 335.649 16.7967 335.035 16.7967C334.381 16.7967 333.805 16.6559 333.306 16.3742C332.808 16.0925 332.418 15.7045 332.136 15.2101Q332.102 15.1492 332.07 15.0868L332.07 15.0867L332.07 15.0866L332.07 15.0863Q331.714 14.3895 331.714 13.5112Q331.714 12.4653 332.127 11.6912Q332.39 11.2001 332.778 10.8481Q333.002 10.6453 333.268 10.4887Q333.345 10.4431 333.425 10.4023Q334.095 10.0603 334.94 10.0603Q335.908 10.0603 336.596 10.4988L336.596 10.4989L336.598 10.5002Q336.623 10.5163 336.648 10.533Q336.838 10.6606 337.001 10.8162Q337.442 11.237 337.688 11.8625ZM309.437 12.7549L309.437 16.6194L307.817 16.6194L307.817 10.2375L309.236 10.2375L309.236 10.9373L309.309 10.8514Q309.332 10.8259 309.355 10.801Q309.597 10.5492 309.918 10.3735Q310.003 10.327 310.091 10.2878Q310.094 10.2865 310.098 10.2851Q310.556 10.0839 311.103 10.0839Q311.853 10.0839 312.335 10.403L312.439 10.4766C312.64 10.6289 312.805 10.8127 312.932 11.0281L312.959 11.0778C313.16 10.7762 313.423 10.5385 313.747 10.3646Q313.851 10.3088 313.96 10.2641L313.962 10.263L313.962 10.263Q314.398 10.0839 314.908 10.0839Q315.815 10.0839 316.354 10.5292L316.354 10.5293Q316.465 10.6207 316.56 10.731Q316.62 10.8012 316.675 10.8762L316.675 10.8763Q316.677 10.8801 316.68 10.8839Q317.118 11.4974 317.118 12.424L317.118 16.6194L315.511 16.6194L315.511 12.8494Q315.511 12.2171 315.213 11.8655Q315.118 11.7541 315 11.6779L315 11.6776Q314.747 11.5139 314.388 11.5139Q314.078 11.5139 313.843 11.6471Q313.823 11.6583 313.803 11.6705Q313.733 11.7146 313.672 11.7686L313.672 11.7686Q313.516 11.9062 313.416 12.1078Q313.277 12.3885 313.277 12.7549L313.277 16.6194L311.67 16.6194L311.67 12.8494Q311.67 12.2171 311.372 11.8655Q311.277 11.7538 311.159 11.6777L311.159 11.6776Q310.906 11.5139 310.547 11.5139Q310.233 11.5139 309.996 11.6497Q309.854 11.7305 309.741 11.8596Q309.691 11.916 309.649 11.9778L309.649 11.9779L309.649 11.9792Q309.437 12.296 309.437 12.7549ZM340.873 13.3576L340.873 16.6194L339.254 16.6194L339.254 10.2375L340.672 10.2375L340.672 11.2657L340.697 11.2208Q340.749 11.1326 340.808 11.0496L340.809 11.0493L340.812 11.0451Q340.83 11.0193 340.849 10.994C340.987 10.8127 341.156 10.663 341.357 10.5449C341.511 10.4503 341.678 10.3764 341.86 10.3232C342.041 10.2701 342.228 10.2366 342.421 10.2228C342.614 10.209 342.807 10.2139 343 10.2375L343 11.7385C342.823 11.6833 342.617 11.6646 342.383 11.6824C342.148 11.7001 341.937 11.7543 341.748 11.8448C341.558 11.9315 341.399 12.0468 341.269 12.1906C341.139 12.3344 341.04 12.5037 340.973 12.6987Q340.873 12.9912 340.873 13.3576ZM336.298 12.684L333.487 12.684L333.498 12.6298C333.553 12.3974 333.635 12.1987 333.745 12.0338L333.803 11.9542Q333.875 11.8616 333.961 11.7861Q334.342 11.4548 335.011 11.4548Q335.586 11.4548 335.898 11.7412L335.898 11.7413L335.899 11.7421Q335.968 11.8057 336.024 11.8832Q336.215 12.1469 336.289 12.6176L336.298 12.684ZM320.292 15.4494Q320.492 15.5322 320.77 15.5322Q321.213 15.5322 321.518 15.3755C321.72 15.2712 321.882 15.152 322.002 15.0181C322.122 14.8841 322.204 14.7719 322.247 14.6812C322.33 14.5079 322.378 14.306 322.392 14.0756L322.4 13.9419C322.404 13.8558 322.407 13.7759 322.41 13.7022L322.409 13.6974L322.387 13.7008C322.132 13.7441 321.912 13.7823 321.727 13.8156C321.432 13.8687 321.194 13.917 321.012 13.9603C320.831 14.0037 320.672 14.0509 320.534 14.1021C320.376 14.1652 320.249 14.2332 320.153 14.306C320.056 14.3789 319.985 14.4587 319.94 14.5453C319.895 14.632 319.872 14.7285 319.872 14.8348C319.872 14.9807 319.908 15.1057 319.981 15.2101C320.054 15.3145 320.157 15.3943 320.292 15.4494Z" clip-rule="evenodd" fill="#ADADAD" fill-opacity="1.000000" fill-rule="evenodd"/>
</svg>
