<svg width="12.000000" height="16.000000" viewBox="0 0 12 16" fill="none" xmlns="http://www.w3.org/2000/svg" xmlns:xlink="http://www.w3.org/1999/xlink">
	<desc>
			Created with Pixso.
	</desc>
	<defs/>
	<path id="Shape" d="M6 13C2.68701 13 0 11.657 0 10C0 9.388 0.370972 8.82 1 8.346L1 7C1 4.935 2.25305 3.163 4.04102 2.4C3.92114 1.8117 4.0719 1.20068 4.45154 0.735563C4.83118 0.270451 5.39966 0.000423431 6 0C6.60034 0.000423431 7.16882 0.270451 7.54846 0.735563C7.9281 1.20068 8.07886 1.8117 7.95898 2.4C9.74597 3.163 11 4.935 11 7L11 8.346C11.629 8.82 12 9.388 12 10C12 11.657 9.31299 13 6 13ZM7.98401 13.84C7.35205 13.934 6.69397 14 6 14C5.30603 14 4.64905 13.934 4.01599 13.84C4.01196 13.894 4 13.945 4 14C4 15.104 4.896 16 6 16C7.104 16 8 15.104 8 14C8 13.945 7.98804 13.894 7.98401 13.84Z" clip-rule="evenodd" fill="#EDD556" fill-opacity="1.000000" fill-rule="evenodd"/>
</svg>
