<svg width="16.000366" height="16.000000" viewBox="0 0 16.0004 16" fill="none" xmlns="http://www.w3.org/2000/svg" xmlns:xlink="http://www.w3.org/1999/xlink">
	<desc>
			Created with Pixso.
	</desc>
	<defs/>
	<path id="Shape" d="M11.3337 0L11.3337 1.33333L4.66711 1.33333L4.66711 0L2.66711 0L2.66711 1.33333L1.66663 1.33333C0.749878 1.33333 0 2.08325 0 3L0 14.3333C0 15.2501 0.749878 16 1.66663 16L14.3337 16C15.2505 16 16.0004 15.2501 16.0004 14.3333L16.0004 3C16.0004 2.08325 15.2505 1.33333 14.3337 1.33333L13.3337 1.33333L13.3337 0L11.3337 0ZM1.66663 14.3333L14.3337 14.3333L14.3337 5.5L1.66663 5.5L1.66663 14.3333ZM12.6671 8.66667L8.66711 8.66667L8.66711 12.6667L12.6671 12.6667L12.6671 8.66667Z" clip-rule="evenodd" fill="#4BB1DA" fill-opacity="1.000000" fill-rule="evenodd"/>
</svg>
