<svg width="16.000000" height="16.000000" viewBox="0 0 16 16" fill="none" xmlns="http://www.w3.org/2000/svg" xmlns:xlink="http://www.w3.org/1999/xlink">
	<desc>
			Created with Pixso.
	</desc>
	<defs/>
	<path id="Combined Shape" d="M8 0C3.58167 0 0 3.58172 0 8C0 12.4183 3.58167 16 8 16C12.4183 16 16 12.4183 16 8C16 3.58172 12.4183 0 8 0ZM2.1333 8C2.1333 11.2401 4.75989 13.8667 8 13.8667C9.55591 13.8667 11.0481 13.2486 12.1483 12.1484C13.2485 11.0481 13.8667 9.55594 13.8667 8C13.8667 4.75993 11.2401 2.13334 8 2.13334C4.75989 2.13334 2.1333 4.75993 2.1333 8ZM3.19995 8C3.19995 5.34903 5.349 3.2 8 3.2C10.651 3.2 12.8 5.34903 12.8 8C12.8 10.651 10.651 12.8 8 12.8C5.349 12.8 3.19995 10.651 3.19995 8ZM10.6666 9.06667L7.46667 9.06667C7.17212 9.06667 6.93335 8.82788 6.93335 8.53333L6.93335 6.4C6.93335 6.10545 7.17212 5.86667 7.46667 5.86667C7.76123 5.86667 8 6.10545 8 6.4L8 8L10.6666 8C10.9612 8 11.2 8.23878 11.2 8.53333C11.2 8.82788 10.9612 9.06667 10.6666 9.06667Z" clip-rule="evenodd" fill="#8E4CB6" fill-opacity="1.000000" fill-rule="evenodd"/>
</svg>
