<svg width="14.000000" height="16.000000" viewBox="0 0 14 16" fill="none" xmlns="http://www.w3.org/2000/svg" xmlns:xlink="http://www.w3.org/1999/xlink">
	<desc>
			Created with Pixso.
	</desc>
	<defs/>
	<path id="Shape" d="M14 15C14 15.5523 13.5522 16 13 16L1 16C0.447754 16 0 15.5523 0 15L0 3C0 2.44772 0.447754 2 1 2L2 2L2 1C2 0.447716 2.44775 0 3 0C3.55225 0 4 0.447716 4 1L4 2L6 2L6 1C6 0.447716 6.44775 0 7 0C7.55225 0 8 0.447716 8 1L8 2L10 2L10 1C10 0.447716 10.4478 0 11 0C11.5522 0 12 0.447716 12 1L12 2L13 2C13.5522 2 14 2.44772 14 3L14 15ZM2 7L2 6L12 6L12 7L2 7ZM2 9L2 10L12 10L12 9L2 9ZM2 13L2 12L12 12L12 13L2 13Z" clip-rule="evenodd" fill="#726CEE" fill-opacity="1.000000" fill-rule="evenodd"/>
</svg>
